<svg version="1.1" id="Layer_1" xmlns="http://www.w3.org/2000/svg" xmlns:xlink="http://www.w3.org/1999/xlink" x="0px" y="0px"
	 width="100%" viewBox="0 0 271 253" enable-background="new 0 0 271 253" xml:space="preserve">
<path fill="#132124" opacity="1.000000" stroke="none" 
	d="
M135.000000,254.000000 
	C90.000008,254.000000 45.500023,254.000000 1.000024,254.000000 
	C1.000016,169.666702 1.000016,85.333397 1.000008,1.000069 
	C91.333282,1.000046 181.666565,1.000046 271.999878,1.000023 
	C271.999939,85.333260 271.999939,169.666519 271.999969,253.999893 
	C226.500000,254.000000 181.000000,254.000000 135.000000,254.000000 
M141.509155,132.195175 
	C142.289200,125.587708 143.305313,118.996246 143.754929,112.366371 
	C143.998825,108.769806 143.690735,105.013084 142.884415,101.500107 
	C141.946243,97.412704 138.510071,97.249237 135.287994,98.470314 
	C132.413605,99.559616 128.602905,100.880516 130.291306,105.076050 
	C135.112808,117.057045 133.382858,129.266068 132.181595,141.492661 
	C131.974030,143.605423 131.630966,145.704880 131.350494,147.810486 
	C129.446579,146.389084 128.672714,144.965210 128.002121,143.494263 
	C121.132317,128.425064 111.886139,114.920998 101.057976,102.449677 
	C97.888885,98.799690 94.166260,96.313782 89.309044,98.587173 
	C84.668060,100.759346 85.423958,105.207359 86.179901,109.113647 
	C88.497444,121.089218 87.187630,132.938538 85.555939,144.833527 
	C84.744843,150.746338 84.168205,156.719482 84.026688,162.678207 
	C83.986107,164.386902 85.775734,167.562103 86.828308,167.605820 
	C89.936974,167.734924 93.330986,167.122330 96.125671,165.782608 
	C97.307426,165.216095 98.296432,161.600372 97.622215,160.235413 
	C92.954605,150.785858 94.740349,141.025543 95.607010,131.297668 
	C95.979454,127.117134 96.652527,122.963379 97.189018,118.797462 
	C98.074036,118.240837 98.959053,117.684212 99.844070,117.127586 
	C100.477974,118.663322 100.775948,120.483322 101.797737,121.690826 
	C111.986588,133.731476 119.289413,147.439850 125.534546,161.812439 
	C127.724739,166.852982 131.564713,169.067154 135.608887,167.904968 
	C140.603333,166.469727 141.193878,162.464722 141.171967,158.010056 
	C141.131134,149.708755 141.299316,141.406433 141.509155,132.195175 
M199.063171,114.889458 
	C198.671555,120.177811 198.881165,125.598114 197.755875,130.725449 
	C195.770508,139.771606 192.108871,148.172470 183.986740,153.603836 
	C178.119400,157.527405 175.151001,156.113068 174.673920,149.240372 
	C173.738861,135.770248 172.667206,122.309723 167.306808,109.715942 
	C165.783524,106.137146 163.626785,102.614685 160.993362,99.778793 
	C158.079468,96.640862 152.704376,97.349449 149.796219,100.495567 
	C146.434219,104.132660 148.972137,106.494255 151.289352,109.416069 
	C154.445465,113.395660 157.553223,117.625740 159.603149,122.228752 
	C164.749603,133.784698 165.904266,146.291260 166.643661,158.739777 
	C167.332794,170.341797 175.312637,170.502808 182.683960,166.713638 
	C192.241394,161.800766 197.203445,152.941269 201.447845,143.610306 
	C207.247925,130.859329 210.491409,117.566536 209.215652,103.487518 
	C209.039719,101.546127 207.127655,98.184631 206.076889,98.206810 
	C203.335983,98.264648 200.187027,99.296898 198.079681,101.017174 
	C196.919952,101.963890 197.238342,105.109604 197.427582,107.215614 
	C197.633102,109.502876 198.462265,111.734085 199.063171,114.889458 
M94.088478,74.224854 
	C114.207916,70.212837 132.321747,74.177170 148.163910,87.599419 
	C149.425613,88.668388 151.487076,88.793427 154.403961,89.766472 
	C138.849380,70.579544 107.785172,64.119461 83.342476,74.422707 
	C60.429798,84.081017 41.486622,107.824707 44.960411,141.783249 
	C47.557514,167.171646 68.707909,190.197617 95.288651,195.856674 
	C118.892906,200.882004 144.469574,190.264053 152.992935,176.910278 
	C150.593506,177.779633 148.244370,178.818893 146.325089,180.384949 
	C115.505638,205.532227 68.065865,193.801880 52.661335,157.171631 
	C38.135593,122.631058 56.498806,85.245308 94.088478,74.224854 
z"/>
<path fill="#EBECEC" opacity="1.000000" stroke="none" 
	d="
M141.444824,132.649857 
	C141.299316,141.406433 141.131134,149.708755 141.171967,158.010056 
	C141.193878,162.464722 140.603333,166.469727 135.608887,167.904968 
	C131.564713,169.067154 127.724739,166.852982 125.534546,161.812439 
	C119.289413,147.439850 111.986588,133.731476 101.797737,121.690826 
	C100.775948,120.483322 100.477974,118.663322 99.844070,117.127586 
	C98.959053,117.684212 98.074036,118.240837 97.189018,118.797462 
	C96.652527,122.963379 95.979454,127.117134 95.607010,131.297668 
	C94.740349,141.025543 92.954605,150.785858 97.622215,160.235413 
	C98.296432,161.600372 97.307426,165.216095 96.125671,165.782608 
	C93.330986,167.122330 89.936974,167.734924 86.828308,167.605820 
	C85.775734,167.562103 83.986107,164.386902 84.026688,162.678207 
	C84.168205,156.719482 84.744843,150.746338 85.555939,144.833527 
	C87.187630,132.938538 88.497444,121.089218 86.179901,109.113647 
	C85.423958,105.207359 84.668060,100.759346 89.309044,98.587173 
	C94.166260,96.313782 97.888885,98.799690 101.057976,102.449677 
	C111.886139,114.920998 121.132317,128.425064 128.002121,143.494263 
	C128.672714,144.965210 129.446579,146.389084 131.350494,147.810486 
	C131.630966,145.704880 131.974030,143.605423 132.181595,141.492661 
	C133.382858,129.266068 135.112808,117.057045 130.291306,105.076050 
	C128.602905,100.880516 132.413605,99.559616 135.287994,98.470314 
	C138.510071,97.249237 141.946243,97.412704 142.884415,101.500107 
	C143.690735,105.013084 143.998825,108.769806 143.754929,112.366371 
	C143.305313,118.996246 142.289200,125.587708 141.444824,132.649857 
z"/>
<path fill="#EBECEC" opacity="1.000000" stroke="none" 
	d="
M199.041336,114.439590 
	C198.462265,111.734085 197.633102,109.502876 197.427582,107.215614 
	C197.238342,105.109604 196.919952,101.963890 198.079681,101.017174 
	C200.187027,99.296898 203.335983,98.264648 206.076889,98.206810 
	C207.127655,98.184631 209.039719,101.546127 209.215652,103.487518 
	C210.491409,117.566536 207.247925,130.859329 201.447845,143.610306 
	C197.203445,152.941269 192.241394,161.800766 182.683960,166.713638 
	C175.312637,170.502808 167.332794,170.341797 166.643661,158.739777 
	C165.904266,146.291260 164.749603,133.784698 159.603149,122.228752 
	C157.553223,117.625740 154.445465,113.395660 151.289352,109.416069 
	C148.972137,106.494255 146.434219,104.132660 149.796219,100.495567 
	C152.704376,97.349449 158.079468,96.640862 160.993362,99.778793 
	C163.626785,102.614685 165.783524,106.137146 167.306808,109.715942 
	C172.667206,122.309723 173.738861,135.770248 174.673920,149.240372 
	C175.151001,156.113068 178.119400,157.527405 183.986740,153.603836 
	C192.108871,148.172470 195.770508,139.771606 197.755875,130.725449 
	C198.881165,125.598114 198.671555,120.177811 199.041336,114.439590 
z"/>
<path fill="#DBDCDD" opacity="1.000000" stroke="none" 
	d="
M93.686432,74.345917 
	C56.498806,85.245308 38.135593,122.631058 52.661335,157.171631 
	C68.065865,193.801880 115.505638,205.532227 146.325089,180.384949 
	C148.244370,178.818893 150.593506,177.779633 152.992935,176.910278 
	C144.469574,190.264053 118.892906,200.882004 95.288651,195.856674 
	C68.707909,190.197617 47.557514,167.171646 44.960411,141.783249 
	C41.486622,107.824707 60.429798,84.081017 83.342476,74.422707 
	C107.785172,64.119461 138.849380,70.579544 154.403961,89.766472 
	C151.487076,88.793427 149.425613,88.668388 148.163910,87.599419 
	C132.321747,74.177170 114.207916,70.212837 93.686432,74.345917 
z"/>
</svg>