<svg version="1.1" id="Layer_1" xmlns="http://www.w3.org/2000/svg" xmlns:xlink="http://www.w3.org/1999/xlink" x="0px" y="0px"
	 width="100%" viewBox="0 0 512 512" enable-background="new 0 0 512 512" xml:space="preserve">
<path fill="#000000" opacity="1.000000" stroke="none" 
	d="
M1.000000,136.000000 
	C1.000000,90.666664 1.000000,45.833332 1.000000,1.000000 
	C171.666672,1.000000 342.333344,1.000000 513.000000,1.000000 
	C513.000000,171.666672 513.000000,342.333344 513.000000,513.000000 
	C342.333344,513.000000 171.666672,513.000000 1.000000,513.000000 
	C1.000000,387.500000 1.000000,262.000000 1.000000,136.000000 
M500.009247,173.163971 
	C500.283875,167.775757 500.558472,162.387527 500.968048,156.071426 
	C500.923004,150.047455 500.877960,144.023468 500.966949,137.074265 
	C500.922058,132.049316 500.877167,127.024361 500.967072,121.071007 
	C500.922272,114.381226 500.877502,107.691437 500.967651,100.077553 
	C500.922791,95.384705 500.877930,90.691856 500.967041,85.078918 
	C500.590210,78.719940 500.213409,72.360954 499.702301,65.254005 
	C497.152069,58.800800 494.601837,52.347595 491.761169,45.264126 
	C487.855621,40.472549 483.950104,35.680973 479.763702,30.277956 
	C476.188446,27.811661 472.613190,25.345366 468.738586,22.250916 
	C465.506500,20.795555 462.274414,19.340193 458.640686,17.246683 
	C454.425690,16.220459 450.210693,15.194238 445.130890,14.031931 
	C438.087067,13.743582 431.043243,13.455233 423.091766,13.029788 
	C419.727203,13.075539 416.362671,13.121289 412.085632,13.030104 
	C408.389435,13.075844 404.693237,13.121584 400.071045,13.030277 
	C394.713104,13.076331 389.355133,13.122385 383.071228,13.030567 
	C377.713226,13.076735 372.355225,13.122904 366.069916,13.031865 
	C360.046173,13.077562 354.022400,13.123259 347.129333,13.030573 
	C342.736481,13.523040 338.294922,13.752523 333.959595,14.555636 
	C318.950226,17.336109 306.758209,25.041611 296.959137,36.576790 
	C287.082458,48.203327 282.256622,61.752819 282.026642,77.926079 
	C282.074249,84.283127 282.121857,90.640175 282.028320,97.923409 
	C282.074921,103.281433 282.121490,108.639450 282.028656,114.918129 
	C282.074799,119.277733 282.120941,123.637344 282.027618,128.914764 
	C282.074036,132.942612 282.120453,136.970459 282.028198,141.898087 
	C282.074036,144.932098 282.119873,147.966125 282.027466,151.928253 
	C282.074066,158.950897 282.120667,165.973557 282.059052,173.805588 
	C283.357056,178.572937 284.655029,183.340286 285.994812,188.872955 
	C287.316254,191.946228 288.637726,195.019516 290.235443,198.732254 
	C292.787994,202.170868 295.340546,205.609497 297.996948,209.747208 
	C302.983429,213.869537 307.969879,217.991882 313.301636,222.721939 
	C319.534302,225.092209 325.766937,227.462479 332.725311,230.218124 
	C339.149658,230.757172 345.573975,231.296219 352.923584,231.971786 
	C357.949677,231.925507 362.975800,231.879242 368.929749,231.968796 
	C375.286285,231.923431 381.642822,231.878067 388.926697,231.968414 
	C394.617218,231.923233 400.307739,231.878052 406.925018,231.969070 
	C412.283264,231.923737 417.641541,231.878387 423.927795,231.968079 
	C429.950806,231.924118 435.973816,231.880157 442.783051,231.664886 
	C445.189758,231.281433 447.626038,231.028992 449.998322,230.493134 
	C464.712585,227.169464 477.026764,219.680740 486.391815,207.957001 
	C494.248016,198.122192 499.830383,187.086884 500.009247,173.163971 
M165.902847,231.974899 
	C186.112091,231.886856 203.028564,224.774017 216.393967,209.217422 
	C226.908218,196.979462 231.848801,182.958344 231.969940,166.069473 
	C231.923843,158.712463 231.877747,151.355438 231.968918,143.078018 
	C231.923584,138.717804 231.878250,134.357605 231.970764,129.069427 
	C231.925125,121.379135 231.879486,113.688850 231.971710,105.070641 
	C231.925705,98.379166 231.879700,91.687698 231.970901,84.074493 
	C231.018585,76.369446 230.066269,68.664398 229.014267,60.159996 
	C227.047684,55.426113 225.081100,50.692230 223.002808,45.248844 
	C220.685242,42.130630 218.367676,39.012417 215.784225,35.285213 
	C210.204071,30.817427 204.623901,26.349640 198.700836,21.257599 
	C192.148529,19.133417 185.596237,17.009235 178.585663,14.191396 
	C166.353973,13.794209 154.124496,13.170013 141.890106,13.051477 
	C122.085648,12.859597 102.277954,13.014508 82.471657,12.993699 
	C72.431740,12.983150 62.540436,14.077036 53.256897,18.065409 
	C34.472000,26.135725 21.415970,39.709068 16.155161,59.653080 
	C14.095026,67.463158 13.146336,75.790283 13.150344,83.881203 
	C13.165555,114.586159 13.777701,145.290817 14.021441,176.817627 
	C16.311104,183.562073 18.600767,190.306503 20.992178,197.772476 
	C25.314529,203.220108 29.636879,208.667740 34.225029,214.727875 
	C37.149773,217.096344 40.074516,219.464813 43.649734,222.150528 
	C48.086246,224.138336 52.522758,226.126160 57.360355,228.772110 
	C65.238983,229.792648 73.117607,230.813171 81.924400,231.976028 
	C88.949059,231.928635 95.973724,231.881241 103.926498,231.974777 
	C111.616882,231.927490 119.307259,231.880188 127.921051,231.973480 
	C132.613510,231.926193 137.305969,231.878922 142.926498,231.972565 
	C150.283813,231.926483 157.641144,231.880417 165.902847,231.974899 
M231.967590,383.079529 
	C231.922379,378.719543 231.877167,374.359589 231.967026,369.071045 
	C231.922958,362.046814 231.878891,355.022583 231.968079,347.100342 
	C230.589432,339.400116 229.210785,331.699921 227.730438,323.295685 
	C224.836151,318.493927 221.941849,313.692169 218.989197,308.198334 
	C217.034103,305.783600 215.079010,303.368866 212.788712,300.348419 
	C208.815598,297.431000 204.842468,294.513550 200.307938,291.096771 
	C192.460449,286.668549 184.317276,283.156982 174.904037,282.496155 
	C174.606888,282.393188 174.309753,282.290192 173.507706,282.059387 
	C173.337860,282.095398 173.168030,282.131409 172.069595,282.032593 
	C159.045593,282.077667 146.021591,282.122711 132.069046,282.033020 
	C118.378876,282.077728 104.688698,282.122467 90.070137,282.031433 
	C82.651527,282.351257 75.166351,282.152252 67.827560,283.094025 
	C50.112297,285.367432 36.327881,294.440674 25.690968,308.654785 
	C14.887787,323.091064 12.187133,339.549347 13.025191,357.926514 
	C13.072727,371.616974 13.120263,385.307465 13.026330,399.926086 
	C13.073339,412.949768 13.120349,425.973450 13.051463,439.823181 
	C13.366651,441.236481 13.857202,442.636200 13.967883,444.065338 
	C14.577554,451.937317 16.761187,459.293945 20.995661,466.766663 
	C23.961020,470.860199 26.926378,474.953735 30.173878,479.656769 
	C32.783482,482.051056 35.393085,484.445343 38.624081,487.146790 
	C42.381126,489.448120 46.138168,491.749451 50.267929,494.685669 
	C58.511238,496.735291 66.754547,498.784912 75.926613,500.971344 
	C83.284172,500.924866 90.641724,500.878357 98.917259,500.967896 
	C102.945107,500.922607 106.972961,500.877319 111.928505,500.968170 
	C117.952309,500.922943 123.976120,500.877716 130.928497,500.968781 
	C140.952087,500.923859 150.975693,500.878937 161.910934,500.969696 
	C170.633759,499.799866 179.764084,499.890747 188.004166,497.227386 
	C214.322968,488.720581 234.100998,462.924255 231.967331,430.070953 
	C231.922455,420.713898 231.877579,411.356812 231.966644,401.072266 
	C231.921997,395.381653 231.877350,389.691071 231.967590,383.079529 
M500.966431,348.134338 
	C500.588806,344.756409 500.211182,341.378510 499.963135,337.187927 
	C498.325806,331.756927 496.688477,326.325928 494.983704,320.175903 
	C492.671783,316.414124 490.359863,312.652374 487.984650,308.208405 
	C486.025879,306.123016 484.067139,304.037659 481.819641,301.342865 
	C478.896729,298.860443 475.973816,296.378021 472.744446,293.276642 
	C469.179840,291.481995 465.615204,289.687378 461.665466,287.267242 
	C456.776917,285.900391 451.888367,284.533539 446.145477,283.031586 
	C441.096558,282.742798 436.047607,282.453979 430.070221,282.031586 
	C423.379913,282.076263 416.689575,282.120941 409.070557,282.031616 
	C401.046631,282.076172 393.022736,282.120728 384.069946,282.032166 
	C373.713226,282.077148 363.356476,282.122131 352.077209,282.033569 
	C332.839233,281.103180 315.609619,286.498535 301.725006,299.933258 
	C287.162476,314.023895 280.914337,331.723267 282.030853,352.928009 
	C282.075653,362.951508 282.120483,372.975006 282.029663,383.927246 
	C282.074982,391.617920 282.120300,399.308594 282.030914,407.927673 
	C282.075653,414.284698 282.120422,420.641693 282.030548,427.924744 
	C282.317596,433.298767 282.604645,438.672760 282.978699,444.896912 
	C283.947144,448.945465 284.915588,452.994049 285.980225,457.804352 
	C287.950836,461.885040 289.921448,465.965759 291.965912,470.760376 
	C294.607727,473.856232 297.249542,476.952087 300.005585,480.743286 
	C302.322815,482.866852 304.640015,484.990448 307.299866,487.709259 
	C311.185272,489.843475 315.070648,491.977692 319.327698,494.727264 
	C324.204590,496.189728 329.081482,497.652222 334.444183,499.781738 
	C338.296173,500.132141 342.148163,500.482544 346.908173,500.966919 
	C350.272919,500.921997 353.637695,500.877075 357.930939,500.966278 
	C384.232697,500.977539 410.534607,501.032684 436.836090,500.950806 
	C440.598267,500.939087 444.440277,500.639252 448.106659,499.838135 
	C479.513428,492.975250 499.706970,468.704620 500.800598,437.892456 
	C501.709167,412.293945 500.887512,386.634094 500.966675,360.088135 
	C500.921997,356.392334 500.877289,352.696564 500.966431,348.134338 
z"/>
<path fill="#29AAE2" opacity="1.000000" stroke="none" 
	d="
M14.166635,175.995590 
	C13.777701,145.290817 13.165555,114.586159 13.150344,83.881203 
	C13.146336,75.790283 14.095026,67.463158 16.155161,59.653080 
	C21.415970,39.709068 34.472000,26.135725 53.256897,18.065409 
	C62.540436,14.077036 72.431740,12.983150 82.471657,12.993699 
	C102.277954,13.014508 122.085648,12.859597 141.890106,13.051477 
	C154.124496,13.170013 166.353973,13.794209 178.730240,14.877872 
	C177.666473,17.126278 176.623093,18.857386 175.223022,20.222719 
	C166.049423,29.168686 156.775726,38.011887 147.578766,46.934052 
	C134.914505,59.219910 122.250778,71.506783 109.655823,83.863548 
	C88.617775,104.503738 67.661812,125.227600 46.615555,145.859390 
	C37.108688,155.179047 27.486176,164.381210 17.861624,173.579651 
	C16.815687,174.579285 15.407041,175.199417 14.166635,175.995590 
z"/>
<path fill="#6200D2" opacity="1.000000" stroke="none" 
	d="
M500.832336,361.001404 
	C500.887512,386.634094 501.709167,412.293945 500.800598,437.892456 
	C499.706970,468.704620 479.513428,492.975250 448.106659,499.838135 
	C444.440277,500.639252 440.598267,500.939087 436.836090,500.950806 
	C410.534607,501.032684 384.232697,500.977539 357.589172,500.600891 
	C369.641754,488.174561 382.038208,476.115845 394.429749,464.052094 
	C407.425476,451.400208 420.453217,438.780884 433.401154,426.080261 
	C454.195251,405.683319 474.922272,385.217896 495.724884,364.829620 
	C497.231140,363.353333 499.120880,362.268341 500.832336,361.001404 
z"/>
<path fill="#4260DB" opacity="1.000000" stroke="none" 
	d="
M20.889603,466.048401 
	C16.761187,459.293945 14.577554,451.937317 13.967883,444.065338 
	C13.857202,442.636200 13.366651,441.236481 13.429399,439.321350 
	C21.966461,431.284027 30.268257,423.896271 38.254551,416.181854 
	C54.155159,400.822540 69.859436,385.260193 85.689781,369.827820 
	C94.969688,360.781219 104.388275,351.876648 113.652924,342.814545 
	C132.430023,324.447968 151.171127,306.044250 169.833603,287.561462 
	C171.265091,286.143738 171.960602,283.982880 172.998199,282.167419 
	C173.168030,282.131409 173.337860,282.095398 173.927017,282.273438 
	C174.582932,282.671753 174.835098,282.831482 175.102814,282.966675 
	C184.317276,283.156982 192.460449,286.668549 200.239410,291.530029 
	C193.093719,298.496948 185.903320,304.912933 178.963623,311.589478 
	C165.660431,324.388245 152.458389,337.292999 139.288895,350.229614 
	C116.620468,372.497223 94.009407,394.823273 71.372597,417.123108 
	C70.779961,417.706940 70.163544,418.266541 69.566238,418.845734 
	C53.340054,434.579285 37.114914,450.313934 20.889603,466.048401 
z"/>
<path fill="#3F69DC" opacity="1.000000" stroke="none" 
	d="
M172.533905,282.100006 
	C171.960602,283.982880 171.265091,286.143738 169.833603,287.561462 
	C151.171127,306.044250 132.430023,324.447968 113.652924,342.814545 
	C104.388275,351.876648 94.969688,360.781219 85.689781,369.827820 
	C69.859436,385.260193 54.155159,400.822540 38.254551,416.181854 
	C30.268257,423.896271 21.966461,431.284027 13.487347,438.908325 
	C13.120349,425.973450 13.073339,412.949768 13.444909,399.430878 
	C15.376227,397.989258 17.113283,397.274597 18.367298,396.060883 
	C32.220718,382.652679 45.974941,369.142029 59.807476,355.712128 
	C67.315674,348.422516 74.977798,341.291260 82.473709,333.989197 
	C98.428352,318.447235 114.348099,302.869019 130.185059,287.207458 
	C131.498932,285.908142 132.077423,283.865204 132.997589,282.167755 
	C146.021591,282.122711 159.045593,282.077667 172.533905,282.100006 
z"/>
<path fill="#2F9AE0" opacity="1.000000" stroke="none" 
	d="
M33.959229,214.115356 
	C29.636879,208.667740 25.314529,203.220108 21.222507,197.220703 
	C25.614149,192.632828 29.782448,188.603867 33.935478,184.559235 
	C47.041695,171.795090 60.138645,159.021423 73.245964,146.258423 
	C85.518547,134.308212 97.807961,122.375282 110.075035,110.419418 
	C124.010796,96.837189 137.918732,83.226395 151.859909,69.649719 
	C163.177826,58.627701 174.621414,47.732609 185.817123,36.588196 
	C190.482727,31.943979 194.649918,26.799088 199.043747,21.881855 
	C204.623901,26.349640 210.204071,30.817427 215.738785,35.878624 
	C203.818848,48.126480 191.956512,59.793350 180.066727,71.432182 
	C165.434860,85.755241 150.796326,100.071556 136.129807,114.359116 
	C125.520149,124.694656 114.822426,134.939911 104.230400,145.293396 
	C80.784454,168.211319 57.380379,191.172073 33.959229,214.115356 
z"/>
<path fill="#494AD9" opacity="1.000000" stroke="none" 
	d="
M74.997864,500.834534 
	C66.754547,498.784912 58.511238,496.735291 50.375019,494.191895 
	C55.785439,489.167450 61.307663,484.866486 66.349152,480.061157 
	C79.120827,467.887695 91.677246,455.488342 104.318962,443.178558 
	C117.080009,430.752533 129.884293,418.370514 142.590652,405.888763 
	C165.399017,383.483643 188.148254,361.018250 210.921997,338.577850 
	C211.159348,338.343964 211.379669,338.090668 211.631912,337.874420 
	C217.029938,333.247101 222.431381,328.623779 227.832153,323.999695 
	C229.210785,331.699921 230.589432,339.400116 231.581451,347.638977 
	C222.790115,355.959503 214.268265,363.619354 206.007339,371.550995 
	C192.562332,384.460083 179.247772,397.505981 165.950455,410.567719 
	C143.385284,432.733063 120.879578,454.958893 98.333755,477.143951 
	C97.270943,478.189758 95.969383,478.997498 94.935249,480.067139 
	C88.265198,486.966156 81.638687,493.907257 74.997864,500.834534 
z"/>
<path fill="#4556DA" opacity="1.000000" stroke="none" 
	d="
M312.956360,222.114227 
	C307.969879,217.991882 302.983429,213.869537 298.255859,209.246017 
	C300.108093,207.564240 301.855774,206.543533 303.270538,205.177917 
	C315.350922,193.517212 327.376587,181.799789 339.407410,170.087799 
	C352.511169,157.331375 365.600189,144.559784 378.700714,131.800034 
	C391.205292,119.620689 403.749847,107.482170 416.217041,95.264694 
	C435.814209,76.060165 455.384918,56.828423 474.893188,37.533749 
	C476.868530,35.580070 478.339508,33.116402 480.044556,30.889397 
	C483.950104,35.680973 487.855621,40.472549 491.727661,45.868187 
	C487.356171,50.588860 482.977264,54.663353 478.687775,58.829922 
	C465.548340,71.592987 452.445953,84.394196 439.323975,97.175270 
	C426.798920,109.374931 414.224823,121.524605 401.748047,133.773407 
	C379.757294,155.362366 357.836517,177.022583 335.850616,198.616470 
	C333.244690,201.175934 330.241425,203.341904 327.724426,205.978607 
	C322.690948,211.251404 317.866882,216.724075 312.956360,222.114227 
z"/>
<path fill="#338CDF" opacity="1.000000" stroke="none" 
	d="
M229.113937,60.959351 
	C230.066269,68.664398 231.018585,76.369446 231.564514,84.578491 
	C223.272217,92.388161 215.284500,99.587563 207.523834,107.023933 
	C195.282364,118.753860 183.180405,130.629623 171.043198,142.468079 
	C156.286041,156.862000 141.559494,171.287308 126.808784,185.687836 
	C112.415253,199.739655 97.991684,213.760803 83.638443,227.853638 
	C82.526787,228.945129 81.866379,230.496216 80.996231,231.833694 
	C73.117607,230.813171 65.238983,229.792648 57.243828,228.103378 
	C57.981266,226.227768 58.675007,224.857574 59.713490,223.838791 
	C72.888695,210.913757 86.109375,198.035019 99.326736,185.153000 
	C112.305832,172.503220 125.336555,159.906097 138.269424,147.209290 
	C160.345627,125.536034 182.336609,103.775963 204.421494,82.111595 
	C210.944794,75.712509 217.606659,69.450577 224.343842,63.277313 
	C225.593033,62.132679 227.506866,61.713406 229.113937,60.959351 
z"/>
<path fill="#2CA1E1" opacity="1.000000" stroke="none" 
	d="
M198.872284,21.569727 
	C194.649918,26.799088 190.482727,31.943979 185.817123,36.588196 
	C174.621414,47.732609 163.177826,58.627701 151.859909,69.649719 
	C137.918732,83.226395 124.010796,96.837189 110.075035,110.419418 
	C97.807961,122.375282 85.518547,134.308212 73.245964,146.258423 
	C60.138645,159.021423 47.041695,171.795090 33.935478,184.559235 
	C29.782448,188.603867 25.614149,192.632828 21.171633,196.859955 
	C18.600767,190.306503 16.311104,183.562073 14.094038,176.406616 
	C15.407041,175.199417 16.815687,174.579285 17.861624,173.579651 
	C27.486176,164.381210 37.108688,155.179047 46.615555,145.859390 
	C67.661812,125.227600 88.617775,104.503738 109.655823,83.863548 
	C122.250778,71.506783 134.914505,59.219910 147.578766,46.934052 
	C156.775726,38.011887 166.049423,29.168686 175.223022,20.222719 
	C176.623093,18.857386 177.666473,17.126278 178.959381,15.224701 
	C185.596237,17.009235 192.148529,19.133417 198.872284,21.569727 
z"/>
<path fill="#484FD9" opacity="1.000000" stroke="none" 
	d="
M313.128998,222.418076 
	C317.866882,216.724075 322.690948,211.251404 327.724426,205.978607 
	C330.241425,203.341904 333.244690,201.175934 335.850616,198.616470 
	C357.836517,177.022583 379.757294,155.362366 401.748047,133.773407 
	C414.224823,121.524605 426.798920,109.374931 439.323975,97.175270 
	C452.445953,84.394196 465.548340,71.592987 478.687775,58.829922 
	C482.977264,54.663353 487.356171,50.588860 491.872894,46.183319 
	C494.601837,52.347595 497.152069,58.800800 499.436462,65.707306 
	C497.505310,67.217842 495.639984,68.057175 494.209320,69.370102 
	C488.085205,74.990028 482.021027,80.679390 476.059998,86.472054 
	C461.262634,100.851456 446.550659,115.318703 431.771454,129.716873 
	C421.285828,139.932175 410.692108,150.036957 400.242493,160.288757 
	C378.501007,181.618729 356.800537,202.990738 335.170441,224.433456 
	C333.737549,225.853973 333.039459,228.015762 331.999603,229.832764 
	C325.766937,227.462479 319.534302,225.092209 313.128998,222.418076 
z"/>
<path fill="#3B74DD" opacity="1.000000" stroke="none" 
	d="
M132.533325,282.100403 
	C132.077423,283.865204 131.498932,285.908142 130.185059,287.207458 
	C114.348099,302.869019 98.428352,318.447235 82.473709,333.989197 
	C74.977798,341.291260 67.315674,348.422516 59.807476,355.712128 
	C45.974941,369.142029 32.220718,382.652679 18.367298,396.060883 
	C17.113283,397.274597 15.376227,397.989258 13.515644,398.966797 
	C13.120263,385.307465 13.072727,371.616974 13.451941,357.432800 
	C15.871039,355.838776 18.209478,355.100708 19.800694,353.580536 
	C31.927309,341.995209 43.925793,330.275360 55.928947,318.561279 
	C66.865578,307.888092 77.787346,297.199097 88.625404,286.426300 
	C89.733147,285.325195 90.222313,283.601807 90.998520,282.167175 
	C104.688698,282.122467 118.378876,282.077728 132.533325,282.100403 
z"/>
<path fill="#4751DA" opacity="1.000000" stroke="none" 
	d="
M227.781296,323.647705 
	C222.431381,328.623779 217.029938,333.247101 211.631912,337.874420 
	C211.379669,338.090668 211.159348,338.343964 210.921997,338.577850 
	C188.148254,361.018250 165.399017,383.483643 142.590652,405.888763 
	C129.884293,418.370514 117.080009,430.752533 104.318962,443.178558 
	C91.677246,455.488342 79.120827,467.887695 66.349152,480.061157 
	C61.307663,484.866486 55.785439,489.167450 50.188660,493.874420 
	C46.138168,491.749451 42.381126,489.448120 38.401814,486.672729 
	C39.305939,484.779572 40.291542,483.215057 41.581909,481.965210 
	C49.103287,474.680084 56.735497,467.509338 64.256111,460.223419 
	C77.035614,447.842621 89.759544,435.404480 102.507683,422.991302 
	C115.136620,410.694275 127.811150,398.443665 140.386490,386.092072 
	C163.054108,363.827789 185.656601,341.497223 208.302078,319.210358 
	C211.841354,315.727142 215.463669,312.328308 219.047577,308.890442 
	C221.941849,313.692169 224.836151,318.493927 227.781296,323.647705 
z"/>
<path fill="#4459DA" opacity="1.000000" stroke="none" 
	d="
M20.942631,466.407532 
	C37.114914,450.313934 53.340054,434.579285 69.566238,418.845734 
	C70.163544,418.266541 70.779961,417.706940 71.372597,417.123108 
	C94.009407,394.823273 116.620468,372.497223 139.288895,350.229614 
	C152.458389,337.292999 165.660431,324.388245 178.963623,311.589478 
	C185.903320,304.912933 193.093719,298.496948 200.520111,291.779694 
	C204.842468,294.513550 208.815598,297.431000 212.616180,300.736145 
	C211.235321,301.977386 209.892761,302.691498 208.839432,303.705933 
	C197.935730,314.206787 187.068558,324.745636 176.211243,335.294464 
	C163.682068,347.467621 151.172531,359.660919 138.655487,371.846527 
	C126.019173,384.148315 113.347092,396.413635 100.756828,408.762421 
	C80.083244,429.039398 59.451145,449.358734 38.833534,469.692627 
	C35.763645,472.720276 32.868000,475.924622 29.891747,479.047241 
	C26.926378,474.953735 23.961020,470.860199 20.942631,466.407532 
z"/>
<path fill="#3192E0" opacity="1.000000" stroke="none" 
	d="
M229.064102,60.559677 
	C227.506866,61.713406 225.593033,62.132679 224.343842,63.277313 
	C217.606659,69.450577 210.944794,75.712509 204.421494,82.111595 
	C182.336609,103.775963 160.345627,125.536034 138.269424,147.209290 
	C125.336555,159.906097 112.305832,172.503220 99.326736,185.153000 
	C86.109375,198.035019 72.888695,210.913757 59.713490,223.838791 
	C58.675007,224.857574 57.981266,226.227768 57.043289,227.774323 
	C52.522758,226.126160 48.086246,224.138336 43.356056,221.643951 
	C44.128952,219.504456 44.943333,217.613968 46.304138,216.281540 
	C53.674961,209.064529 61.218018,202.023865 68.631889,194.850250 
	C80.834793,183.042816 92.988243,171.184265 105.155052,159.339569 
	C118.157509,146.681351 131.194336,134.058060 144.139343,121.341301 
	C166.949402,98.933434 189.655029,76.418999 212.530640,54.078472 
	C215.689331,50.993649 219.568756,48.646824 223.114517,45.958344 
	C225.081100,50.692230 227.047684,55.426113 229.064102,60.559677 
z"/>
<path fill="#4A49D9" opacity="1.000000" stroke="none" 
	d="
M332.362457,230.025452 
	C333.039459,228.015762 333.737549,225.853973 335.170441,224.433456 
	C356.800537,202.990738 378.501007,181.618729 400.242493,160.288757 
	C410.692108,150.036957 421.285828,139.932175 431.771454,129.716873 
	C446.550659,115.318703 461.262634,100.851456 476.059998,86.472054 
	C482.021027,80.679390 488.085205,74.990028 494.209320,69.370102 
	C495.639984,68.057175 497.505310,67.217842 499.503601,66.081291 
	C500.213409,72.360954 500.590210,78.719940 500.580200,85.628586 
	C499.127838,86.954521 497.956573,87.620430 497.013153,88.524139 
	C487.760742,97.386856 478.523651,106.265800 469.326599,115.185944 
	C456.781799,127.353004 444.244843,139.528442 431.760284,151.757233 
	C412.730865,170.396759 393.774445,189.110825 374.732941,207.737946 
	C368.551147,213.785172 362.109619,219.568573 355.984711,225.671188 
	C354.290558,227.359177 353.307587,229.760956 351.998322,231.835266 
	C345.573975,231.296219 339.149658,230.757172 332.362457,230.025452 
z"/>
<path fill="#435CDB" opacity="1.000000" stroke="none" 
	d="
M479.904114,30.583675 
	C478.339508,33.116402 476.868530,35.580070 474.893188,37.533749 
	C455.384918,56.828423 435.814209,76.060165 416.217041,95.264694 
	C403.749847,107.482170 391.205292,119.620689 378.700714,131.800034 
	C365.600189,144.559784 352.511169,157.331375 339.407410,170.087799 
	C327.376587,181.799789 315.350922,193.517212 303.270538,205.177917 
	C301.855774,206.543533 300.108093,207.564240 298.203918,208.896469 
	C295.340546,205.609497 292.787994,202.170868 290.276855,198.122299 
	C295.516602,192.868561 300.862244,188.378052 305.884552,183.551163 
	C318.965973,170.978745 331.904907,158.258102 344.901978,145.597900 
	C357.660370,133.170212 370.462097,120.786621 383.170349,108.307861 
	C405.387787,86.491615 427.537262,64.606163 449.748505,42.783554 
	C452.115509,40.457966 454.873077,38.518261 457.152161,36.117321 
	C461.233429,31.817846 465.088379,27.303570 469.037933,22.879070 
	C472.613190,25.345366 476.188446,27.811661 479.904114,30.583675 
z"/>
<path fill="#5C11D4" opacity="1.000000" stroke="none" 
	d="
M318.956024,494.111938 
	C315.070648,491.977692 311.185272,489.843475 307.213074,487.071960 
	C308.452179,484.755096 309.608826,482.901489 311.129547,481.422180 
	C332.839905,460.302795 354.670685,439.306793 376.327637,418.132965 
	C399.185608,395.784943 421.888397,373.278259 444.662811,350.844788 
	C445.373993,350.144226 446.141144,349.500732 446.858307,348.805969 
	C460.590332,335.503052 474.318787,322.196472 488.047943,308.890594 
	C490.359863,312.652374 492.671783,316.414124 494.838745,320.824280 
	C487.416412,328.527863 480.131622,335.575500 472.863312,342.640106 
	C460.576843,354.582336 448.295807,366.530212 436.021729,378.485229 
	C422.674316,391.485657 409.296082,404.454834 396.005280,417.512970 
	C373.094971,440.022278 350.243896,462.591888 327.357788,485.125885 
	C326.412109,486.057037 325.268555,486.797516 324.381744,487.776001 
	C322.515228,489.835480 320.758057,491.994019 318.956024,494.111938 
z"/>
<path fill="#3F69DC" opacity="1.000000" stroke="none" 
	d="
M282.167236,172.996216 
	C282.120667,165.973557 282.074066,158.950897 282.444580,151.432770 
	C284.258301,150.106308 285.869965,149.501266 287.017609,148.408783 
	C296.538635,139.345123 305.988281,130.206207 315.431488,121.061119 
	C326.908722,109.946205 338.398071,98.843361 349.812347,87.663979 
	C373.839447,64.131340 397.831238,40.562580 421.785461,16.955822 
	C422.791290,15.964606 423.273376,14.441962 423.999420,13.166885 
	C431.043243,13.455233 438.087067,13.743582 445.474609,14.419882 
	C444.572449,16.344757 443.465179,18.023836 442.058350,19.395777 
	C432.173920,29.035231 422.206207,38.589222 412.306519,48.213116 
	C398.705750,61.434959 385.102692,74.654877 371.570404,87.946648 
	C349.128479,109.989616 326.766571,132.114059 304.315369,154.147537 
	C298.621094,159.735855 292.774414,165.173676 286.863831,170.532928 
	C285.596069,171.682404 283.747986,172.191895 282.167236,172.996216 
z"/>
<path fill="#5F0AD3" opacity="1.000000" stroke="none" 
	d="
M319.141846,494.419617 
	C320.758057,491.994019 322.515228,489.835480 324.381744,487.776001 
	C325.268555,486.797516 326.412109,486.057037 327.357788,485.125885 
	C350.243896,462.591888 373.094971,440.022278 396.005280,417.512970 
	C409.296082,404.454834 422.674316,391.485657 436.021729,378.485229 
	C448.295807,366.530212 460.576843,354.582336 472.863312,342.640106 
	C480.131622,335.575500 487.416412,328.527863 494.872437,321.183777 
	C496.688477,326.325928 498.325806,331.756927 499.565643,337.674133 
	C497.503967,339.217346 495.621796,340.042725 494.211578,341.369690 
	C485.980591,349.114532 477.799835,356.915070 469.714874,364.812225 
	C451.868561,382.244110 434.088531,399.743927 416.282990,417.217560 
	C398.239868,434.924286 380.203033,452.637421 362.145050,470.328949 
	C361.081787,471.370575 359.748260,472.142639 358.719757,473.212463 
	C350.441620,481.823151 342.206604,490.475281 333.958374,499.114716 
	C329.081482,497.652222 324.204590,496.189728 319.141846,494.419617 
z"/>
<path fill="#4C43D8" opacity="1.000000" stroke="none" 
	d="
M75.462242,500.902954 
	C81.638687,493.907257 88.265198,486.966156 94.935249,480.067139 
	C95.969383,478.997498 97.270943,478.189758 98.333755,477.143951 
	C120.879578,454.958893 143.385284,432.733063 165.950455,410.567719 
	C179.247772,397.505981 192.562332,384.460083 206.007339,371.550995 
	C214.268265,363.619354 222.790115,355.959503 231.514816,348.087982 
	C231.878891,355.022583 231.922958,362.046814 231.579681,369.624878 
	C222.429672,378.318817 213.518097,386.305420 204.935272,394.630951 
	C186.884094,412.141052 169.004913,429.828522 151.056244,447.444305 
	C144.874435,453.511536 138.692230,459.578369 132.516617,465.651855 
	C121.356728,476.627258 110.192993,487.598846 99.070564,498.612091 
	C98.520317,499.156952 98.347725,500.083221 97.999283,500.831879 
	C90.641724,500.878357 83.284172,500.924866 75.462242,500.902954 
z"/>
<path fill="#5720D5" opacity="1.000000" stroke="none" 
	d="
M446.999817,283.166687 
	C451.888367,284.533539 456.776917,285.900391 461.679535,287.869232 
	C457.595154,292.348328 453.455170,296.182648 449.405975,300.110535 
	C436.868011,312.272949 424.338409,324.444214 411.854126,336.661652 
	C393.896118,354.235779 375.979584,371.852264 358.047699,389.453094 
	C339.759338,407.403839 321.497559,425.381683 303.169220,443.291443 
	C299.011322,447.354370 294.698761,451.268677 290.298584,455.067444 
	C289.129761,456.076477 287.371582,456.402832 285.884033,457.042603 
	C284.915588,452.994049 283.947144,448.945465 283.224640,444.294159 
	C290.146851,437.461060 296.903900,431.314575 303.481934,424.982208 
	C315.693420,413.226807 327.833832,401.397034 339.943329,389.536469 
	C359.063202,370.809631 378.130157,352.028839 397.226288,333.277771 
	C402.326233,328.270020 407.464294,323.301086 412.561279,318.290283 
	C423.701813,307.338135 434.835907,296.379395 445.932831,285.383179 
	C446.481689,284.839325 446.652802,283.914246 446.999817,283.166687 
z"/>
<path fill="#591BD5" opacity="1.000000" stroke="none" 
	d="
M285.932129,457.423462 
	C287.371582,456.402832 289.129761,456.076477 290.298584,455.067444 
	C294.698761,451.268677 299.011322,447.354370 303.169220,443.291443 
	C321.497559,425.381683 339.759338,407.403839 358.047699,389.453094 
	C375.979584,371.852264 393.896118,354.235779 411.854126,336.661652 
	C424.338409,324.444214 436.868011,312.272949 449.405975,300.110535 
	C453.455170,296.182648 457.595154,292.348328 461.872101,288.181976 
	C465.615204,289.687378 469.179840,291.481995 472.719025,293.874939 
	C463.413208,303.532440 454.137909,312.596832 444.851166,321.649506 
	C431.983032,334.193390 419.107910,346.730042 406.232910,359.266876 
	C393.715851,371.455170 381.152161,383.596008 368.685547,395.835663 
	C346.593903,417.525208 324.589050,439.303223 302.471130,460.965881 
	C299.158203,464.210632 295.428802,467.030182 291.892090,470.046448 
	C289.921448,465.965759 287.950836,461.885040 285.932129,457.423462 
z"/>
<path fill="#3685DE" opacity="1.000000" stroke="none" 
	d="
M81.460312,231.904861 
	C81.866379,230.496216 82.526787,228.945129 83.638443,227.853638 
	C97.991684,213.760803 112.415253,199.739655 126.808784,185.687836 
	C141.559494,171.287308 156.286041,156.862000 171.043198,142.468079 
	C183.180405,130.629623 195.282364,118.753860 207.523834,107.023933 
	C215.284500,99.587563 223.272217,92.388161 231.495911,85.039352 
	C231.879700,91.687698 231.925705,98.379166 231.582794,105.624252 
	C221.727036,115.020905 212.169189,123.768982 202.815842,132.730469 
	C190.437241,144.590500 178.182953,156.581085 165.939362,168.580994 
	C146.081772,188.043320 126.262405,207.544724 106.478760,227.082153 
	C105.099548,228.444214 104.148529,230.239838 102.998383,231.833847 
	C95.973724,231.881241 88.949059,231.928635 81.460312,231.904861 
z"/>
<path fill="#532ED6" opacity="1.000000" stroke="none" 
	d="
M282.165619,406.999268 
	C282.120300,399.308594 282.074982,391.617920 282.417542,383.373840 
	C283.870483,382.045654 285.040558,381.380737 285.984314,380.478912 
	C294.758453,372.094971 303.566833,363.744751 312.225952,355.242889 
	C335.254944,332.632141 358.227722,309.964081 381.172150,287.267517 
	C382.667175,285.788635 383.733215,283.876068 384.998810,282.165253 
	C393.022736,282.120728 401.046631,282.076172 409.503693,282.446533 
	C408.752625,284.612793 407.821045,286.621552 406.342163,288.072479 
	C398.382446,295.881592 390.251068,303.515320 382.246124,311.278839 
	C369.097595,324.030731 355.974976,336.809540 342.888092,349.624664 
	C324.443390,367.686371 306.066193,385.817139 287.572784,403.828674 
	C286.119568,405.244049 283.984039,405.958832 282.165619,406.999268 
z"/>
<path fill="#5A17D4" opacity="1.000000" stroke="none" 
	d="
M291.929016,470.403412 
	C295.428802,467.030182 299.158203,464.210632 302.471130,460.965881 
	C324.589050,439.303223 346.593903,417.525208 368.685547,395.835663 
	C381.152161,383.596008 393.715851,371.455170 406.232910,359.266876 
	C419.107910,346.730042 431.983032,334.193390 444.851166,321.649506 
	C454.137909,312.596832 463.413208,303.532440 472.872253,294.184448 
	C475.973816,296.378021 478.896729,298.860443 481.674622,301.825439 
	C468.366119,315.025757 455.185516,327.725861 442.044006,340.466309 
	C429.617218,352.513824 417.185059,364.556427 404.837891,376.685333 
	C381.915588,399.202484 359.055176,421.782562 336.165588,444.333008 
	C324.077850,456.241699 311.983032,468.143188 299.891388,480.047943 
	C297.249542,476.952087 294.607727,473.856232 291.929016,470.403412 
z"/>
<path fill="#4163DB" opacity="1.000000" stroke="none" 
	d="
M282.113159,173.400909 
	C283.747986,172.191895 285.596069,171.682404 286.863831,170.532928 
	C292.774414,165.173676 298.621094,159.735855 304.315369,154.147537 
	C326.766571,132.114059 349.128479,109.989616 371.570404,87.946648 
	C385.102692,74.654877 398.705750,61.434959 412.306519,48.213116 
	C422.206207,38.589222 432.173920,29.035231 442.058350,19.395777 
	C443.465179,18.023836 444.572449,16.344757 445.907043,14.487925 
	C450.210693,15.194238 454.425690,16.220459 458.806580,17.933609 
	C456.382477,21.513021 453.940613,24.556274 451.176910,27.272053 
	C438.836761,39.398468 426.400848,51.427425 414.006866,63.499126 
	C400.777985,76.383972 387.516022,89.235252 374.342224,102.176193 
	C351.666382,124.451256 329.089508,146.827209 306.378998,169.066772 
	C299.730560,175.577347 292.770325,181.769516 285.953033,188.107635 
	C284.655029,183.340286 283.357056,178.572937 282.113159,173.400909 
z"/>
<path fill="#5035D7" opacity="1.000000" stroke="none" 
	d="
M384.534363,282.098694 
	C383.733215,283.876068 382.667175,285.788635 381.172150,287.267517 
	C358.227722,309.964081 335.254944,332.632141 312.225952,355.242889 
	C303.566833,363.744751 294.758453,372.094971 285.984314,380.478912 
	C285.040558,381.380737 283.870483,382.045654 282.485352,382.909485 
	C282.120483,372.975006 282.075653,362.951508 282.418945,352.374390 
	C283.752014,351.163757 284.815369,350.627228 285.624695,349.832123 
	C307.187561,328.648682 328.734772,307.449249 350.236145,286.203430 
	C351.374908,285.078186 352.088318,283.522461 352.999756,282.167114 
	C363.356476,282.122131 373.713226,282.077148 384.534363,282.098694 
z"/>
<path fill="#4556DA" opacity="1.000000" stroke="none" 
	d="
M30.032818,479.351990 
	C32.868000,475.924622 35.763645,472.720276 38.833534,469.692627 
	C59.451145,449.358734 80.083244,429.039398 100.756828,408.762421 
	C113.347092,396.413635 126.019173,384.148315 138.655487,371.846527 
	C151.172531,359.660919 163.682068,347.467621 176.211243,335.294464 
	C187.068558,324.745636 197.935730,314.206787 208.839432,303.705933 
	C209.892761,302.691498 211.235321,301.977386 212.783783,301.039001 
	C215.079010,303.368866 217.034103,305.783600 219.018387,308.544373 
	C215.463669,312.328308 211.841354,315.727142 208.302078,319.210358 
	C185.656601,341.497223 163.054108,363.827789 140.386490,386.092072 
	C127.811150,398.443665 115.136620,410.694275 102.507683,422.991302 
	C89.759544,435.404480 77.035614,447.842621 64.256111,460.223419 
	C56.735497,467.509338 49.103287,474.680084 41.581909,481.965210 
	C40.291542,483.215057 39.305939,484.779572 38.091118,486.519165 
	C35.393085,484.445343 32.783482,482.051056 30.032818,479.351990 
z"/>
<path fill="#3780DE" opacity="1.000000" stroke="none" 
	d="
M103.462440,231.904312 
	C104.148529,230.239838 105.099548,228.444214 106.478760,227.082153 
	C126.262405,207.544724 146.081772,188.043320 165.939362,168.580994 
	C178.182953,156.581085 190.437241,144.590500 202.815842,132.730469 
	C212.169189,123.768982 221.727036,115.020905 231.513855,106.088211 
	C231.879486,113.688850 231.925125,121.379135 231.553894,129.565262 
	C229.624893,131.007568 227.904312,131.733810 226.634155,132.935974 
	C217.950378,141.154892 209.286255,149.397461 200.755859,157.775024 
	C177.397919,180.714569 154.096283,203.711533 130.822601,226.736542 
	C129.328903,228.214249 128.262711,230.124084 126.997635,231.832901 
	C119.307259,231.880188 111.616882,231.927490 103.462440,231.904312 
z"/>
<path fill="#5429D6" opacity="1.000000" stroke="none" 
	d="
M282.098267,407.463440 
	C283.984039,405.958832 286.119568,405.244049 287.572784,403.828674 
	C306.066193,385.817139 324.443390,367.686371 342.888092,349.624664 
	C355.974976,336.809540 369.097595,324.030731 382.246124,311.278839 
	C390.251068,303.515320 398.382446,295.881592 406.342163,288.072479 
	C407.821045,286.621552 408.752625,284.612793 409.968048,282.513550 
	C416.689575,282.120941 423.379913,282.076263 430.492401,282.436157 
	C430.151947,283.884766 429.525574,285.071777 428.604492,285.949554 
	C422.704834,291.571838 416.632202,297.015839 410.816528,302.722382 
	C387.997986,325.112823 365.253815,347.578979 342.481598,370.016602 
	C342.006989,370.484253 341.527954,370.947418 341.050323,371.412048 
	C322.689545,389.275513 304.341766,407.152466 285.931610,424.964905 
	C284.944366,425.920105 283.432709,426.333252 282.165161,426.998718 
	C282.120422,420.641693 282.075653,414.284698 282.098267,407.463440 
z"/>
<path fill="#5624D5" opacity="1.000000" stroke="none" 
	d="
M282.097839,427.461731 
	C283.432709,426.333252 284.944366,425.920105 285.931610,424.964905 
	C304.341766,407.152466 322.689545,389.275513 341.050323,371.412048 
	C341.527954,370.947418 342.006989,370.484253 342.481598,370.016602 
	C365.253815,347.578979 387.997986,325.112823 410.816528,302.722382 
	C416.632202,297.015839 422.704834,291.571838 428.604492,285.949554 
	C429.525574,285.071777 430.151947,283.884766 430.956635,282.502930 
	C436.047607,282.453979 441.096558,282.742798 446.572632,283.099152 
	C446.652802,283.914246 446.481689,284.839325 445.932831,285.383179 
	C434.835907,296.379395 423.701813,307.338135 412.561279,318.290283 
	C407.464294,323.301086 402.326233,328.270020 397.226288,333.277771 
	C378.130157,352.028839 359.063202,370.809631 339.943329,389.536469 
	C327.833832,401.397034 315.693420,413.226807 303.481934,424.982208 
	C296.903900,431.314575 290.146851,437.461060 283.181152,443.869080 
	C282.604645,438.672760 282.317596,433.298767 282.097839,427.461731 
z"/>
<path fill="#5036D7" opacity="1.000000" stroke="none" 
	d="
M160.999283,500.834015 
	C150.975693,500.878937 140.952087,500.923859 130.553619,500.580811 
	C131.424500,498.656616 132.531921,496.978607 133.938202,495.606934 
	C144.056274,485.737762 154.287354,475.984192 164.383377,466.092682 
	C184.585510,446.299744 204.694092,426.411194 224.937256,406.660492 
	C226.891357,404.753937 229.518173,403.536896 231.832703,401.999756 
	C231.877579,411.356812 231.922455,420.713898 231.568115,430.615417 
	C229.503021,432.218719 227.588943,433.023804 226.208496,434.374359 
	C205.734131,454.404388 185.301987,474.477997 164.962250,494.644562 
	C163.264587,496.327789 162.302902,498.753357 160.999283,500.834015 
z"/>
<path fill="#3096E0" opacity="1.000000" stroke="none" 
	d="
M223.058655,45.603596 
	C219.568756,48.646824 215.689331,50.993649 212.530640,54.078472 
	C189.655029,76.418999 166.949402,98.933434 144.139343,121.341301 
	C131.194336,134.058060 118.157509,146.681351 105.155052,159.339569 
	C92.988243,171.184265 80.834793,183.042816 68.631889,194.850250 
	C61.218018,202.023865 53.674961,209.064529 46.304138,216.281540 
	C44.943333,217.613968 44.128952,219.504456 43.030823,221.485336 
	C40.074516,219.464813 37.149773,217.096344 34.092125,214.421600 
	C57.380379,191.172073 80.784454,168.211319 104.230400,145.293396 
	C114.822426,134.939911 125.520149,124.694656 136.129807,114.359116 
	C150.796326,100.071556 165.434860,85.755241 180.066727,71.432182 
	C191.956512,59.793350 203.818848,48.126480 215.871719,36.183121 
	C218.367676,39.012417 220.685242,42.130630 223.058655,45.603596 
z"/>
<path fill="#4D40D8" opacity="1.000000" stroke="none" 
	d="
M500.832703,101.001656 
	C500.877502,107.691437 500.922272,114.381226 500.579834,121.624756 
	C499.127838,122.953949 497.949127,123.612442 497.015411,124.522324 
	C482.006805,139.147675 467.013794,153.789154 452.048798,168.459183 
	C433.399445,186.740906 414.785004,205.058228 396.132050,223.336304 
	C394.951660,224.492996 393.436615,225.319351 392.312805,226.519913 
	C390.757751,228.181122 389.426483,230.051758 387.999359,231.832703 
	C381.642822,231.878067 375.286285,231.923431 368.554962,231.581009 
	C369.425720,229.656845 370.532990,227.978821 371.938843,226.606689 
	C382.411224,216.385361 392.953217,206.235382 403.453094,196.042145 
	C415.624878,184.225815 427.805725,172.418579 439.929047,160.552628 
	C458.238068,142.632370 476.497253,124.661255 494.787903,106.722214 
	C496.768127,104.779991 498.816132,102.906845 500.832703,101.001656 
z"/>
<path fill="#4260DB" opacity="1.000000" stroke="none" 
	d="
M285.973938,188.490295 
	C292.770325,181.769516 299.730560,175.577347 306.378998,169.066772 
	C329.089508,146.827209 351.666382,124.451256 374.342224,102.176193 
	C387.516022,89.235252 400.777985,76.383972 414.006866,63.499126 
	C426.400848,51.427425 438.836761,39.398468 451.176910,27.272053 
	C453.940613,24.556274 456.382477,21.513021 459.007416,18.252684 
	C462.274414,19.340193 465.506500,20.795555 468.888245,22.564991 
	C465.088379,27.303570 461.233429,31.817846 457.152161,36.117321 
	C454.873077,38.518261 452.115509,40.457966 449.748505,42.783554 
	C427.537262,64.606163 405.387787,86.491615 383.170349,108.307861 
	C370.462097,120.786621 357.660370,133.170212 344.901978,145.597900 
	C331.904907,158.258102 318.965973,170.978745 305.884552,183.551163 
	C300.862244,188.378052 295.516602,192.868561 290.138733,197.802582 
	C288.637726,195.019516 287.316254,191.946228 285.973938,188.490295 
z"/>
<path fill="#5B14D4" opacity="1.000000" stroke="none" 
	d="
M299.948486,480.395630 
	C311.983032,468.143188 324.077850,456.241699 336.165588,444.333008 
	C359.055176,421.782562 381.915588,399.202484 404.837891,376.685333 
	C417.185059,364.556427 429.617218,352.513824 442.044006,340.466309 
	C455.185516,327.725861 468.366119,315.025757 481.819000,302.130127 
	C484.067139,304.037659 486.025879,306.123016 488.016296,308.549500 
	C474.318787,322.196472 460.590332,335.503052 446.858307,348.805969 
	C446.141144,349.500732 445.373993,350.144226 444.662811,350.844788 
	C421.888397,373.278259 399.185608,395.784943 376.327637,418.132965 
	C354.670685,439.306793 332.839905,460.302795 311.129547,481.422180 
	C309.608826,482.901489 308.452179,484.755096 307.041748,486.774353 
	C304.640015,484.990448 302.322815,482.866852 299.948486,480.395630 
z"/>
<path fill="#4C43D8" opacity="1.000000" stroke="none" 
	d="
M500.900177,100.539604 
	C498.816132,102.906845 496.768127,104.779991 494.787903,106.722214 
	C476.497253,124.661255 458.238068,142.632370 439.929047,160.552628 
	C427.805725,172.418579 415.624878,184.225815 403.453094,196.042145 
	C392.953217,206.235382 382.411224,216.385361 371.938843,226.606689 
	C370.532990,227.978821 369.425720,229.656845 368.091034,231.513092 
	C362.975800,231.879242 357.949677,231.925507 352.460938,231.903519 
	C353.307587,229.760956 354.290558,227.359177 355.984711,225.671188 
	C362.109619,219.568573 368.551147,213.785172 374.732941,207.737946 
	C393.774445,189.110825 412.730865,170.396759 431.760284,151.757233 
	C444.244843,139.528442 456.781799,127.353004 469.326599,115.185944 
	C478.523651,106.265800 487.760742,97.386856 497.013153,88.524139 
	C497.956573,87.620430 499.127838,86.954521 500.513214,86.088638 
	C500.877930,90.691856 500.922791,95.384705 500.900177,100.539604 
z"/>
<path fill="#397CDE" opacity="1.000000" stroke="none" 
	d="
M90.534332,282.099304 
	C90.222313,283.601807 89.733147,285.325195 88.625404,286.426300 
	C77.787346,297.199097 66.865578,307.888092 55.928947,318.561279 
	C43.925793,330.275360 31.927309,341.995209 19.800694,353.580536 
	C18.209478,355.100708 15.871039,355.838776 13.522844,356.968811 
	C12.187133,339.549347 14.887787,323.091064 25.690968,308.654785 
	C36.327881,294.440674 50.112297,285.367432 67.827560,283.094025 
	C75.166351,282.152252 82.651527,282.351257 90.534332,282.099304 
z"/>
<path fill="#6104D2" opacity="1.000000" stroke="none" 
	d="
M500.899506,360.544769 
	C499.120880,362.268341 497.231140,363.353333 495.724884,364.829620 
	C474.922272,385.217896 454.195251,405.683319 433.401154,426.080261 
	C420.453217,438.780884 407.425476,451.400208 394.429749,464.052094 
	C382.038208,476.115845 369.641754,488.174561 357.124939,500.533844 
	C353.637695,500.877075 350.272919,500.921997 346.463440,500.533569 
	C346.992981,498.253662 347.602234,496.044647 349.009125,494.627533 
	C353.455658,490.148590 358.277130,486.045044 362.815979,481.654022 
	C375.612976,469.273956 388.342133,456.823730 401.096497,444.399597 
	C414.089478,431.743073 427.105560,419.110168 440.066681,406.421082 
	C458.263794,388.605804 476.389984,370.717834 494.640930,352.957977 
	C496.360291,351.284851 498.752686,350.303375 500.832611,349.000732 
	C500.877289,352.696564 500.921997,356.392334 500.899506,360.544769 
z"/>
<path fill="#6007D3" opacity="1.000000" stroke="none" 
	d="
M500.899536,348.567535 
	C498.752686,350.303375 496.360291,351.284851 494.640930,352.957977 
	C476.389984,370.717834 458.263794,388.605804 440.066681,406.421082 
	C427.105560,419.110168 414.089478,431.743073 401.096497,444.399597 
	C388.342133,456.823730 375.612976,469.273956 362.815979,481.654022 
	C358.277130,486.045044 353.455658,490.148590 349.009125,494.627533 
	C347.602234,496.044647 346.992981,498.253662 346.009399,500.466614 
	C342.148163,500.482544 338.296173,500.132141 334.201294,499.448242 
	C342.206604,490.475281 350.441620,481.823151 358.719757,473.212463 
	C359.748260,472.142639 361.081787,471.370575 362.145050,470.328949 
	C380.203033,452.637421 398.239868,434.924286 416.282990,417.217560 
	C434.088531,399.743927 451.868561,382.244110 469.714874,364.812225 
	C477.799835,356.915070 485.980591,349.114532 494.211578,341.369690 
	C495.621796,340.042725 497.503967,339.217346 499.500854,338.080444 
	C500.211182,341.378510 500.588806,344.756409 500.899536,348.567535 
z"/>
<path fill="#4E3CD8" opacity="1.000000" stroke="none" 
	d="
M231.899673,401.536011 
	C229.518173,403.536896 226.891357,404.753937 224.937256,406.660492 
	C204.694092,426.411194 184.585510,446.299744 164.383377,466.092682 
	C154.287354,475.984192 144.056274,485.737762 133.938202,495.606934 
	C132.531921,496.978607 131.424500,498.656616 130.089325,500.512665 
	C123.976120,500.877716 117.952309,500.922943 111.559509,500.584656 
	C118.172768,493.588257 125.255295,487.077545 132.118927,480.343719 
	C154.935242,457.959015 177.645309,435.466095 200.454468,413.074097 
	C209.476868,404.216675 218.631744,395.493530 227.784592,386.770416 
	C228.952835,385.657043 230.474670,384.914673 231.832703,384.000458 
	C231.877350,389.691071 231.921997,395.381653 231.899673,401.536011 
z"/>
<path fill="#3A77DD" opacity="1.000000" stroke="none" 
	d="
M231.831650,143.998428 
	C231.877747,151.355438 231.923843,158.712463 231.582428,166.623505 
	C229.660706,168.421310 228.027054,169.561615 226.608246,170.925430 
	C216.552948,180.590912 206.453018,190.212616 196.540482,200.023239 
	C185.927582,210.527023 175.504425,221.222504 164.998459,231.834335 
	C157.641144,231.880417 150.283813,231.926483 142.496063,231.555023 
	C142.627853,230.160873 142.998505,228.982422 143.781845,228.238693 
	C151.978073,220.457230 160.397339,212.904984 168.453537,204.982864 
	C188.496872,185.273132 208.371597,165.391983 228.372086,145.638428 
	C229.229141,144.791931 230.665268,144.531738 231.831650,143.998428 
z"/>
<path fill="#4D40D8" opacity="1.000000" stroke="none" 
	d="
M231.900146,383.539978 
	C230.474670,384.914673 228.952835,385.657043 227.784592,386.770416 
	C218.631744,395.493530 209.476868,404.216675 200.454468,413.074097 
	C177.645309,435.466095 154.935242,457.959015 132.118927,480.343719 
	C125.255295,487.077545 118.172768,493.588257 111.095657,500.516602 
	C106.972961,500.877319 102.945107,500.922607 98.458267,500.899902 
	C98.347725,500.083221 98.520317,499.156952 99.070564,498.612091 
	C110.192993,487.598846 121.356728,476.627258 132.516617,465.651855 
	C138.692230,459.578369 144.874435,453.511536 151.056244,447.444305 
	C169.004913,429.828522 186.884094,412.141052 204.935272,394.630951 
	C213.518097,386.305420 222.429672,378.318817 231.512146,370.089142 
	C231.877167,374.359589 231.922379,378.719543 231.900146,383.539978 
z"/>
<path fill="#532ED6" opacity="1.000000" stroke="none" 
	d="
M161.455109,500.901855 
	C162.302902,498.753357 163.264587,496.327789 164.962250,494.644562 
	C185.301987,474.477997 205.734131,454.404388 226.208496,434.374359 
	C227.588943,433.023804 229.503021,432.218719 231.501572,431.079895 
	C234.100998,462.924255 214.322968,488.720581 188.004166,497.227386 
	C179.764084,499.890747 170.633759,499.799866 161.455109,500.901855 
z"/>
<path fill="#4E3CD8" opacity="1.000000" stroke="none" 
	d="
M352.538483,282.100342 
	C352.088318,283.522461 351.374908,285.078186 350.236145,286.203430 
	C328.734772,307.449249 307.187561,328.648682 285.624695,349.832123 
	C284.815369,350.627228 283.752014,351.163757 282.487122,351.910095 
	C280.914337,331.723267 287.162476,314.023895 301.725006,299.933258 
	C315.609619,286.498535 332.839233,281.103180 352.538483,282.100342 
z"/>
<path fill="#4E3CD8" opacity="1.000000" stroke="none" 
	d="
M388.463013,231.900558 
	C389.426483,230.051758 390.757751,228.181122 392.312805,226.519913 
	C393.436615,225.319351 394.951660,224.492996 396.132050,223.336304 
	C414.785004,205.058228 433.399445,186.740906 452.048798,168.459183 
	C467.013794,153.789154 482.006805,139.147675 497.015411,124.522324 
	C497.949127,123.612442 499.127838,122.953949 500.512421,122.088959 
	C500.877167,127.024361 500.922058,132.049316 500.580078,137.626419 
	C498.773468,139.307816 497.252563,140.331741 495.950134,141.583038 
	C485.988770,151.153427 476.021149,160.718216 466.148346,170.379700 
	C447.107147,189.013351 428.101196,207.683273 409.173309,226.431732 
	C407.738953,227.852493 407.039368,230.015091 405.998230,231.832855 
	C400.307739,231.878052 394.617218,231.923233 388.463013,231.900558 
z"/>
<path fill="#3A77DD" opacity="1.000000" stroke="none" 
	d="
M282.168091,113.997467 
	C282.121490,108.639450 282.074921,103.281433 282.446594,97.429230 
	C284.377930,95.987663 286.119110,95.274658 287.369446,94.057442 
	C303.931305,77.934303 320.428284,61.744484 336.931061,45.560684 
	C340.376099,42.182205 343.730896,38.710541 347.212250,35.370399 
	C352.845886,29.965260 358.674652,24.755953 364.141571,19.189497 
	C365.612183,17.692127 366.072906,15.202960 366.997223,13.169071 
	C372.355225,13.122904 377.713226,13.076735 383.525391,13.465790 
	C382.771057,15.982342 381.942871,18.447357 380.292694,20.083157 
	C368.955139,31.321795 357.405426,42.345898 346.000488,53.517128 
	C326.509918,72.608292 307.098969,91.780899 287.569153,110.831703 
	C286.119141,112.246147 283.984467,112.958649 282.168091,113.997467 
z"/>
<path fill="#5036D7" opacity="1.000000" stroke="none" 
	d="
M406.461609,231.900970 
	C407.039368,230.015091 407.738953,227.852493 409.173309,226.431732 
	C428.101196,207.683273 447.107147,189.013351 466.148346,170.379700 
	C476.021149,160.718216 485.988770,151.153427 495.950134,141.583038 
	C497.252563,140.331741 498.773468,139.307816 500.513062,138.089035 
	C500.877960,144.023468 500.923004,150.047455 500.552734,156.566925 
	C498.622559,158.011261 496.875031,158.722534 495.627472,159.944336 
	C474.689148,180.450653 453.820831,201.028503 432.909485,221.562469 
	C431.134796,223.305130 429.051941,224.739029 427.319763,226.518372 
	C425.733612,228.147675 424.428650,230.050659 422.999786,231.833054 
	C417.641541,231.878387 412.283264,231.923737 406.461609,231.900970 
z"/>
<path fill="#3B74DD" opacity="1.000000" stroke="none" 
	d="
M282.098389,114.457794 
	C283.984467,112.958649 286.119141,112.246147 287.569153,110.831703 
	C307.098969,91.780899 326.509918,72.608292 346.000488,53.517128 
	C357.405426,42.345898 368.955139,31.321795 380.292694,20.083157 
	C381.942871,18.447357 382.771057,15.982342 383.988403,13.534725 
	C389.355133,13.122385 394.713104,13.076331 400.445129,13.418756 
	C395.538086,19.047302 390.290161,24.321318 384.969330,29.520689 
	C372.129028,42.067822 359.224426,54.549263 346.401001,67.113571 
	C327.160797,85.964989 307.997711,104.895218 288.706787,123.694427 
	C286.871857,125.482597 284.363037,126.579254 282.167114,127.996948 
	C282.120941,123.637344 282.074799,119.277733 282.098389,114.457794 
z"/>
<path fill="#397CDE" opacity="1.000000" stroke="none" 
	d="
M366.533569,13.100468 
	C366.072906,15.202960 365.612183,17.692127 364.141571,19.189497 
	C358.674652,24.755953 352.845886,29.965260 347.212250,35.370399 
	C343.730896,38.710541 340.376099,42.182205 336.931061,45.560684 
	C320.428284,61.744484 303.931305,77.934303 287.369446,94.057442 
	C286.119110,95.274658 284.377930,95.987663 282.517212,96.966141 
	C282.121857,90.640175 282.074249,84.283127 282.444824,77.431061 
	C284.608368,75.757370 286.579529,74.809898 288.062225,73.362183 
	C297.088776,64.548569 305.970825,55.587181 314.965515,46.740570 
	C325.490143,36.389168 336.092407,26.116697 346.614563,15.762786 
	C347.281219,15.106799 347.546600,14.043019 347.998657,13.168951 
	C354.022400,13.123259 360.046173,13.077562 366.533569,13.100468 
z"/>
<path fill="#3D6FDC" opacity="1.000000" stroke="none" 
	d="
M282.097351,128.455856 
	C284.363037,126.579254 286.871857,125.482597 288.706787,123.694427 
	C307.997711,104.895218 327.160797,85.964989 346.401001,67.113571 
	C359.224426,54.549263 372.129028,42.067822 384.969330,29.520689 
	C390.290161,24.321318 395.538086,19.047302 400.908112,13.487280 
	C404.693237,13.121584 408.389435,13.075844 412.452881,13.418576 
	C411.574890,15.343167 410.468842,17.022161 409.062012,18.392319 
	C399.653320,27.555513 390.113495,36.584610 380.741821,45.785133 
	C357.950409,68.160339 335.254944,90.633278 312.462738,113.007675 
	C303.803314,121.508354 295.006348,129.869659 286.212769,138.232132 
	C285.044128,139.343460 283.524139,140.085342 282.166870,140.998322 
	C282.120453,136.970459 282.074036,132.942612 282.097351,128.455856 
z"/>
<path fill="#3E6CDC" opacity="1.000000" stroke="none" 
	d="
M282.097534,141.448212 
	C283.524139,140.085342 285.044128,139.343460 286.212769,138.232132 
	C295.006348,129.869659 303.803314,121.508354 312.462738,113.007675 
	C335.254944,90.633278 357.950409,68.160339 380.741821,45.785133 
	C390.113495,36.584610 399.653320,27.555513 409.062012,18.392319 
	C410.468842,17.022161 411.574890,15.343167 412.909119,13.487043 
	C416.362671,13.121289 419.727203,13.075539 423.545593,13.098338 
	C423.273376,14.441962 422.791290,15.964606 421.785461,16.955822 
	C397.831238,40.562580 373.839447,64.131340 349.812347,87.663979 
	C338.398071,98.843361 326.908722,109.946205 315.431488,121.061119 
	C305.988281,130.206207 296.538635,139.345123 287.017609,148.408783 
	C285.869965,149.501266 284.258301,150.106308 282.513733,150.968704 
	C282.119873,147.966125 282.074036,144.932098 282.097534,141.448212 
z"/>
<path fill="#397CDE" opacity="1.000000" stroke="none" 
	d="
M231.900284,143.538223 
	C230.665268,144.531738 229.229141,144.791931 228.372086,145.638428 
	C208.371597,165.391983 188.496872,185.273132 168.453537,204.982864 
	C160.397339,212.904984 151.978073,220.457230 143.781845,228.238693 
	C142.998505,228.982422 142.627853,230.160873 142.032013,231.484558 
	C137.305969,231.878922 132.613510,231.926193 127.459343,231.903198 
	C128.262711,230.124084 129.328903,228.214249 130.822601,226.736542 
	C154.096283,203.711533 177.397919,180.714569 200.755859,157.775024 
	C209.286255,149.397461 217.950378,141.154892 226.634155,132.935974 
	C227.904312,131.733810 229.624893,131.007568 231.484985,130.029236 
	C231.878250,134.357605 231.923584,138.717804 231.900284,143.538223 
z"/>
<path fill="#3D6FDC" opacity="1.000000" stroke="none" 
	d="
M165.450653,231.904617 
	C175.504425,221.222504 185.927582,210.527023 196.540482,200.023239 
	C206.453018,190.212616 216.552948,180.590912 226.608246,170.925430 
	C228.027054,169.561615 229.660706,168.421310 231.514877,167.087677 
	C231.848801,182.958344 226.908218,196.979462 216.393967,209.217422 
	C203.028564,224.774017 186.112091,231.886856 165.450653,231.904617 
z"/>
<path fill="#3780DE" opacity="1.000000" stroke="none" 
	d="
M347.563995,13.099760 
	C347.546600,14.043019 347.281219,15.106799 346.614563,15.762786 
	C336.092407,26.116697 325.490143,36.389168 314.965515,46.740570 
	C305.970825,55.587181 297.088776,64.548569 288.062225,73.362183 
	C286.579529,74.809898 284.608368,75.757370 282.515076,76.967209 
	C282.256622,61.752819 287.082458,48.203327 296.959137,36.576790 
	C306.758209,25.041611 318.950226,17.336109 333.959595,14.555636 
	C338.294922,13.752523 342.736481,13.523040 347.563995,13.099760 
z"/>
<path fill="#5035D7" opacity="1.000000" stroke="none" 
	d="
M423.463806,231.900574 
	C424.428650,230.050659 425.733612,228.147675 427.319763,226.518372 
	C429.051941,224.739029 431.134796,223.305130 432.909485,221.562469 
	C453.820831,201.028503 474.689148,180.450653 495.627472,159.944336 
	C496.875031,158.722534 498.622559,158.011261 500.485229,157.030869 
	C500.558472,162.387527 500.283875,167.775757 499.601837,173.670868 
	C498.749695,174.398773 498.211639,174.524246 497.873596,174.854477 
	C479.810577,192.498978 461.746429,210.142502 443.766388,227.871292 
	C442.806519,228.817703 442.570038,230.497696 441.996826,231.836212 
	C435.973816,231.880157 429.950806,231.924118 423.463806,231.900574 
z"/>
<path fill="#532ED6" opacity="1.000000" stroke="none" 
	d="
M442.389954,231.750549 
	C442.570038,230.497696 442.806519,228.817703 443.766388,227.871292 
	C461.746429,210.142502 479.810577,192.498978 497.873596,174.854477 
	C498.211639,174.524246 498.749695,174.398773 499.514404,174.088135 
	C499.830383,187.086884 494.248016,198.122192 486.391815,207.957001 
	C477.026764,219.680740 464.712585,227.169464 449.998322,230.493134 
	C447.626038,231.028992 445.189758,231.281433 442.389954,231.750549 
z"/>
<path fill="#3F69DC" opacity="1.000000" stroke="none" 
	d="
M175.003418,282.731415 
	C174.835098,282.831482 174.582932,282.671753 174.179474,282.337341 
	C174.309753,282.290192 174.606888,282.393188 175.003418,282.731415 
z"/>
</svg>